<svg xmlns="http://www.w3.org/2000/svg" xmlns:xlink="http://www.w3.org/1999/xlink" width="793" zoomAndPan="magnify" viewBox="0 0 595.5 842.249979" height="1122" preserveAspectRatio="xMidYMid meet" version="1.0"><defs><g/><clipPath id="3f9507b22b"><path d="M 0.015625 417 L 52 417 L 52 515 L 0.015625 515 Z M 0.015625 417 " clip-rule="nonzero"/></clipPath><clipPath id="a5dde7b386"><path d="M 0.015625 386 L 125 386 L 125 441 L 0.015625 441 Z M 0.015625 386 " clip-rule="nonzero"/></clipPath><clipPath id="40c1750517"><path d="M 197 354.988281 L 350 354.988281 L 350 403 L 197 403 Z M 197 354.988281 " clip-rule="nonzero"/></clipPath><clipPath id="bca90b5cf9"><path d="M 265 354.988281 L 371 354.988281 L 371 406 L 265 406 Z M 265 354.988281 " clip-rule="nonzero"/></clipPath><clipPath id="3cf70b4cd6"><path d="M 173 511 L 390 511 L 390 640.90625 L 173 640.90625 Z M 173 511 " clip-rule="nonzero"/></clipPath><clipPath id="5125b8c331"><path d="M 162 499 L 402 499 L 402 640.90625 L 162 640.90625 Z M 162 499 " clip-rule="nonzero"/></clipPath><clipPath id="1e679cdfa6"><path d="M 415.347656 465 L 594.027344 465 L 594.027344 550.902344 L 415.347656 550.902344 Z M 415.347656 465 " clip-rule="nonzero"/></clipPath><clipPath id="eb59e9a896"><path d="M 404.195312 453.226562 L 594.027344 453.226562 L 594.027344 562 L 404.195312 562 Z M 404.195312 453.226562 " clip-rule="nonzero"/></clipPath><clipPath id="f22b51eb5c"><path d="M 540.789062 431 L 594.027344 431 L 594.027344 444 L 540.789062 444 Z M 540.789062 431 " clip-rule="nonzero"/></clipPath><clipPath id="12d7882bf1"><path d="M 529 420 L 594.027344 420 L 594.027344 456 L 529 456 Z M 529 420 " clip-rule="nonzero"/></clipPath><clipPath id="e5e1bc9484"><path d="M 565 422 L 594.027344 422 L 594.027344 437 L 565 437 Z M 565 422 " clip-rule="nonzero"/></clipPath><clipPath id="1af31a2a20"><path d="M 554 410 L 594.027344 410 L 594.027344 449 L 554 449 Z M 554 410 " clip-rule="nonzero"/></clipPath><clipPath id="b08acb21cf"><path d="M 539 451 L 594.027344 451 L 594.027344 469.972656 L 539 469.972656 Z M 539 451 " clip-rule="nonzero"/></clipPath><clipPath id="377938b434"><path d="M 527 440 L 594.027344 440 L 594.027344 481 L 527 481 Z M 527 440 " clip-rule="nonzero"/></clipPath><clipPath id="9a5774a04b"><path d="M 554 443.457031 L 594.027344 443.457031 L 594.027344 453 L 554 453 Z M 554 443.457031 " clip-rule="nonzero"/></clipPath><clipPath id="7210fbeb14"><path d="M 543 432.296875 L 594.027344 432.296875 L 594.027344 464 L 543 464 Z M 543 432.296875 " clip-rule="nonzero"/></clipPath><clipPath id="e2a6471c3c"><path d="M 0.015625 354.988281 L 578 354.988281 L 578 640.90625 L 0.015625 640.90625 Z M 0.015625 354.988281 " clip-rule="nonzero"/></clipPath><clipPath id="97b646ae10"><path d="M 242.480469 273.03125 L 349.90625 273.03125 L 349.90625 436.652344 L 242.480469 436.652344 Z M 242.480469 273.03125 " clip-rule="nonzero"/></clipPath></defs><path stroke-linecap="butt" transform="matrix(0.139379, 0, 0, -0.13954, 1.391489, 737.887754)" fill-opacity="1" fill="#a8db5b" fill-rule="nonzero" stroke-linejoin="miter" d="M 798.094414 1389.449082 L 934.441623 1545.85015 L 539.805436 1523.959039 Z M 798.094414 1389.449082 " stroke="#6e8f3c" stroke-width="5.757" stroke-opacity="1" stroke-miterlimit="10"/><path fill="#a8db5b" d="M 259.550781 407.707031 L 285.023438 410.917969 L 291.613281 396.070312 L 270.285156 394.199219 L 256.777344 398.460938 C 265.148438 400.925781 266.074219 404.71875 259.550781 407.707031 " fill-opacity="1" fill-rule="nonzero"/><path stroke-linecap="butt" transform="matrix(0.139379, 0, 0, -0.13954, 1.391489, 737.887754)" fill="none" stroke-linejoin="miter" d="M 1852.213885 2366.206919 L 2034.972395 2343.196059 L 2082.252506 2449.600293 L 1929.229739 2463.009298 L 1832.31532 2432.46812 C 1892.375355 2414.804065 1899.017552 2387.622136 1852.213885 2366.206919 Z M 1852.213885 2366.206919 " stroke="#6e8f3c" stroke-width="5.757" stroke-opacity="1" stroke-miterlimit="10"/><path fill="#a8db5b" d="M 249.589844 407.761719 C 241.269531 410.019531 228.40625 410.019531 221.097656 407.761719 C 213.902344 405.535156 214.972656 402.011719 223.269531 399.878906 C 231.4375 397.785156 243.742188 397.785156 250.960938 399.878906 C 258.292969 402.011719 257.78125 405.535156 249.589844 407.761719 " fill-opacity="1" fill-rule="nonzero"/><path stroke-linecap="butt" transform="matrix(0.139379, 0, 0, -0.13954, 1.391489, 737.887754)" fill="none" stroke-linejoin="miter" d="M 1780.747208 2365.815007 C 1721.051513 2349.634621 1628.761409 2349.634621 1576.324486 2365.815007 C 1524.700322 2381.771443 1532.379486 2407.021803 1591.907024 2422.306389 C 1650.509699 2437.311038 1738.792065 2437.311038 1790.584386 2422.306389 C 1843.189465 2407.021803 1839.51804 2381.771443 1780.747208 2365.815007 Z M 1780.747208 2365.815007 " stroke="#6e8f3c" stroke-width="5.757" stroke-opacity="1" stroke-miterlimit="10"/><path fill="#a8db5b" d="M 229.144531 515.867188 C 238.183594 519.6875 240.738281 524.292969 239.328125 529.558594 L 285.789062 531.023438 L 348.484375 504.238281 L 346.347656 462.035156 L 244.390625 457.65625 L 202.171875 490.933594 L 202.265625 510.648438 C 213.058594 510.867188 221.390625 512.578125 229.144531 515.867188 " fill-opacity="1" fill-rule="nonzero"/><path stroke-linecap="butt" transform="matrix(0.139379, 0, 0, -0.13954, 1.391489, 737.887754)" fill="none" stroke-linejoin="miter" d="M 1634.058351 1591.088046 C 1698.910857 1563.71016 1717.239957 1530.705532 1707.122518 1492.969961 L 2040.46552 1482.472305 L 2490.285192 1674.425432 L 2474.954889 1976.869879 L 1743.444405 2008.25087 L 1440.5378 1769.772136 L 1441.210428 1628.487692 C 1518.646674 1626.920042 1578.426447 1614.658781 1634.058351 1591.088046 Z M 1634.058351 1591.088046 " stroke="#6e8f3c" stroke-width="5.757" stroke-opacity="1" stroke-miterlimit="10"/><path fill="#a8db5b" d="M 156.699219 543.359375 C 146.175781 538.164062 144.539062 531.105469 150.414062 524.847656 L 142.441406 523.480469 L 119.199219 547.433594 L 156.113281 566.671875 L 169.507812 547.566406 C 164.671875 546.550781 160.320312 545.140625 156.699219 543.359375 " fill-opacity="1" fill-rule="nonzero"/><path stroke-linecap="butt" transform="matrix(0.139379, 0, 0, -0.13954, 1.391489, 737.887754)" fill="none" stroke-linejoin="miter" d="M 1114.285414 1394.068051 C 1038.782972 1431.299735 1027.040016 1481.884437 1069.191342 1526.73042 L 1011.989974 1536.528232 L 845.234395 1364.870572 L 1110.081492 1227.001366 L 1206.183152 1363.918785 C 1171.486781 1371.197159 1140.265653 1381.302902 1114.285414 1394.068051 Z M 1114.285414 1394.068051 " stroke="#6e8f3c" stroke-width="5.757" stroke-opacity="1" stroke-miterlimit="10"/><path fill="#a8db5b" d="M 218.75 539.871094 C 202.816406 546.054688 178.902344 546.054688 166.140625 539.871094 C 153.746094 533.882812 157.070312 524.515625 172.84375 518.957031 C 188.179688 513.550781 210.230469 513.550781 222.785156 518.957031 C 235.699219 524.515625 234.226562 533.882812 218.75 539.871094 " fill-opacity="1" fill-rule="nonzero"/><path stroke-linecap="butt" transform="matrix(0.139379, 0, 0, -0.13954, 1.391489, 737.887754)" fill="none" stroke-linejoin="miter" d="M 1559.480771 1419.066467 C 1445.162115 1374.752365 1273.586038 1374.752365 1182.024613 1419.066467 C 1093.097646 1461.980882 1116.947898 1529.109889 1230.117483 1568.944991 C 1340.148139 1607.688338 1498.355743 1607.688338 1588.431782 1568.944991 C 1681.086227 1529.109889 1670.520369 1461.980882 1559.480771 1419.066467 Z M 1559.480771 1419.066467 " stroke="#6e8f3c" stroke-width="5.757" stroke-opacity="1" stroke-miterlimit="10"/><path fill="#a8db5b" d="M 448.4375 480.417969 L 508.699219 474.613281 L 520.875 461.59375 L 481.476562 461.792969 L 441.507812 476.949219 C 444.300781 478.015625 446.621094 479.183594 448.4375 480.417969 " fill-opacity="1" fill-rule="nonzero"/><path stroke-linecap="butt" transform="matrix(0.139379, 0, 0, -0.13954, 1.391489, 737.887754)" fill="none" stroke-linejoin="miter" d="M 3207.418261 1845.10331 L 3639.777643 1886.730013 L 3727.135146 1980.033173 L 3444.463419 1978.605492 L 3157.699875 1869.989752 C 3177.738571 1862.347458 3194.386102 1853.977328 3207.418261 1845.10331 Z M 3207.418261 1845.10331 " stroke="#6e8f3c" stroke-width="5.757" stroke-opacity="1" stroke-miterlimit="10"/><path fill="#a8db5b" d="M 432.25 474.246094 L 465.445312 461.882812 L 407.023438 462.1875 L 408.730469 472.058594 C 416.554688 471.882812 424.824219 472.609375 432.25 474.246094 " fill-opacity="1" fill-rule="nonzero"/><path stroke-linecap="butt" transform="matrix(0.139379, 0, 0, -0.13954, 1.391489, 737.887754)" fill="none" stroke-linejoin="miter" d="M 3091.277905 1889.361425 L 3329.444109 1977.961636 L 2910.285042 1975.778123 L 2922.532469 1905.037923 C 2978.668843 1906.297642 3038.000198 1901.090805 3091.277905 1889.361425 Z M 3091.277905 1889.361425 " stroke="#6e8f3c" stroke-width="5.757" stroke-opacity="1" stroke-miterlimit="10"/><path fill="#a8db5b" d="M 438.371094 492.679688 C 428.484375 496.957031 409.792969 496.957031 397.105469 492.679688 C 384.714844 488.503906 383.140625 481.933594 393.132812 478 C 402.90625 474.144531 420.441406 474.144531 432.734375 478 C 445.300781 481.933594 448.03125 488.503906 438.371094 492.679688 " fill-opacity="1" fill-rule="nonzero"/><path stroke-linecap="butt" transform="matrix(0.139379, 0, 0, -0.13954, 1.391489, 737.887754)" fill="none" stroke-linejoin="miter" d="M 3135.194878 1757.25893 C 3064.260698 1726.605777 2930.155581 1726.605777 2839.126653 1757.25893 C 2750.227712 1787.184247 2738.933175 1834.26973 2810.624061 1862.459433 C 2880.745483 1890.089262 3006.55486 1890.089262 3094.753147 1862.459433 C 3184.913265 1834.26973 3204.503542 1787.184247 3135.194878 1757.25893 Z M 3135.194878 1757.25893 " stroke="#6e8f3c" stroke-width="5.757" stroke-opacity="1" stroke-miterlimit="10"/><path fill="#a8db5b" d="M 526.859375 408.339844 L 498.765625 410.277344 C 499.269531 411.347656 498.710938 412.40625 497.035156 413.328125 L 523.828125 419.769531 L 556.515625 415.207031 L 526.859375 408.339844 " fill-opacity="1" fill-rule="nonzero"/><path stroke-linecap="butt" transform="matrix(0.139379, 0, 0, -0.13954, 1.391489, 737.887754)" fill="none" stroke-linejoin="miter" d="M 3770.071204 2361.671932 L 3568.507149 2347.787033 C 3572.122522 2340.116747 3568.114783 2332.530441 3556.091566 2325.923917 L 3748.322913 2279.762227 L 3982.845718 2312.458924 Z M 3770.071204 2361.671932 " stroke="#6e8f3c" stroke-width="5.757" stroke-opacity="1" stroke-miterlimit="10"/><path fill="#a8db5b" d="M 489.804688 405.804688 C 492.171875 406.367188 494.113281 407.015625 495.585938 407.71875 L 517.664062 406.214844 L 496.949219 401.417969 L 454.90625 401.09375 L 454.765625 403.15625 L 463.476562 405.253906 C 470.28125 403.640625 481.394531 403.816406 489.804688 405.804688 " fill-opacity="1" fill-rule="nonzero"/><path stroke-linecap="butt" transform="matrix(0.139379, 0, 0, -0.13954, 1.391489, 737.887754)" fill="none" stroke-linejoin="miter" d="M 3504.215166 2379.839874 C 3521.199012 2375.808775 3535.128007 2371.161813 3545.693865 2366.122938 L 3704.097652 2376.900531 L 3555.474991 2411.276853 L 3253.829562 2413.600334 L 3252.820621 2398.819635 L 3315.31893 2383.786993 C 3364.14048 2395.34841 3443.87487 2394.088692 3504.215166 2379.839874 Z M 3504.215166 2379.839874 " stroke="#6e8f3c" stroke-width="5.757" stroke-opacity="1" stroke-miterlimit="10"/><path fill="#a8db5b" d="M 490.316406 412.785156 C 485.753906 414.421875 476.5625 414.421875 469.90625 412.785156 C 463.324219 411.164062 461.816406 408.566406 466.421875 406.992188 C 470.96875 405.433594 479.875 405.433594 486.414062 406.992188 C 493.023438 408.566406 494.824219 411.164062 490.316406 412.785156 " fill-opacity="1" fill-rule="nonzero"/><path stroke-linecap="butt" transform="matrix(0.139379, 0, 0, -0.13954, 1.391489, 737.887754)" fill="none" stroke-linejoin="miter" d="M 3507.886592 2329.815048 C 3475.152051 2318.085667 3409.206525 2318.085667 3361.449969 2329.815048 C 3314.22591 2341.432453 3303.407817 2360.048295 3336.450646 2371.329775 C 3369.073082 2382.49928 3432.972699 2382.49928 3479.88847 2371.329775 C 3527.308712 2360.048295 3540.228766 2341.432453 3507.886592 2329.815048 Z M 3507.886592 2329.815048 " stroke="#6e8f3c" stroke-width="5.757" stroke-opacity="1" stroke-miterlimit="10"/><path fill="#e2dacd" d="M 354.402344 440.574219 L 390.253906 441.90625 L 389.949219 458.757812 L 352.734375 458.878906 L 354.402344 440.574219 " fill-opacity="1" fill-rule="nonzero"/><path stroke-linecap="butt" transform="matrix(0.139379, 0, 0, -0.13954, 1.391489, 737.887754)" fill="none" stroke-linejoin="miter" d="M 2532.744806 2130.667528 L 2789.96879 2121.12166 L 2787.78275 2000.356634 L 2520.77764 1999.488827 Z M 2532.744806 2130.667528 " stroke="#a7a097" stroke-width="5.757" stroke-opacity="1" stroke-miterlimit="10"/><path fill="#e2dacd" d="M 354.203125 412.421875 L 385.457031 415.414062 L 381.964844 398.144531 L 350.382812 396.207031 L 354.203125 412.421875 " fill-opacity="1" fill-rule="nonzero"/><path stroke-linecap="butt" transform="matrix(0.139379, 0, 0, -0.13954, 1.391489, 737.887754)" fill="none" stroke-linejoin="miter" d="M 2531.315472 2332.418466 L 2755.55268 2310.975255 L 2730.497304 2434.735613 L 2503.905899 2448.620512 Z M 2531.315472 2332.418466 " stroke="#a7a097" stroke-width="5.757" stroke-opacity="1" stroke-miterlimit="10"/><path fill="#e2dacd" d="M 342.808594 395.609375 L 305.570312 396.5 L 298.917969 411.773438 L 343.769531 411.910156 L 342.808594 395.609375 " fill-opacity="1" fill-rule="nonzero"/><path stroke-linecap="butt" transform="matrix(0.139379, 0, 0, -0.13954, 1.391489, 737.887754)" fill="none" stroke-linejoin="miter" d="M 2449.563199 2452.903555 L 2182.389932 2446.520981 L 2134.661402 2337.065428 L 2456.457631 2336.085647 Z M 2449.563199 2452.903555 " stroke="#a7a097" stroke-width="5.757" stroke-opacity="1" stroke-miterlimit="10"/><path fill="#e2dacd" d="M 1.398438 429.285156 L 1.398438 486.023438 L 33.992188 503.011719 L 40.347656 433.542969 L 1.398438 429.285156 " fill-opacity="1" fill-rule="nonzero"/><g clip-path="url(#3f9507b22b)"><path stroke-linecap="butt" transform="matrix(0.139379, 0, 0, -0.13954, 1.391489, 737.887754)" fill="none" stroke-linejoin="miter" d="M 0.0498562 2211.569458 L 0.0498562 1804.960276 L 233.900033 1683.215468 L 279.498576 2181.056273 Z M 0.0498562 2211.569458 " stroke="#a7a097" stroke-width="5.757" stroke-opacity="1" stroke-miterlimit="10"/></g><path fill="#e2dacd" d="M 1.398438 423.949219 L 1.398438 424.800781 L 52.125 428.679688 L 66.21875 414.738281 L 112.796875 398.1875 L 1.398438 423.949219 " fill-opacity="1" fill-rule="nonzero"/><g clip-path="url(#a5dde7b386)"><path stroke-linecap="butt" transform="matrix(0.139379, 0, 0, -0.13954, 1.391489, 737.887754)" fill="none" stroke-linejoin="miter" d="M 0.0498562 2249.808917 L 0.0498562 2243.70628 L 363.997411 2215.908489 L 465.115753 2315.818174 L 799.299539 2434.427682 Z M 0.0498562 2249.808917 " stroke="#a7a097" stroke-width="5.757" stroke-opacity="1" stroke-miterlimit="10"/></g><path fill="#e2dacd" d="M 297.957031 355.367188 L 208.558594 376.042969 L 269.601562 391.09375 L 337.996094 364.632812 L 297.957031 355.367188 " fill-opacity="1" fill-rule="nonzero"/><g clip-path="url(#40c1750517)"><path stroke-linecap="butt" transform="matrix(0.139379, 0, 0, -0.13954, 1.391489, 737.887754)" fill="none" stroke-linejoin="miter" d="M 2127.76697 2741.295142 L 1486.360552 2593.124236 L 1924.325163 2485.264327 L 2415.034985 2674.893973 Z M 2127.76697 2741.295142 " stroke="#a7a097" stroke-width="5.757" stroke-opacity="1" stroke-miterlimit="10"/></g><path fill="#e2dacd" d="M 343.164062 365.828125 L 276.734375 392.226562 L 295.476562 394.195312 L 358.6875 369.421875 L 343.164062 365.828125 " fill-opacity="1" fill-rule="nonzero"/><g clip-path="url(#bca90b5cf9)"><path stroke-linecap="butt" transform="matrix(0.139379, 0, 0, -0.13954, 1.391489, 737.887754)" fill="none" stroke-linejoin="miter" d="M 2452.113578 2666.327886 L 1975.500909 2477.14614 L 2109.970366 2463.037292 L 2563.48949 2640.573638 Z M 2452.113578 2666.327886 " stroke="#a7a097" stroke-width="5.757" stroke-opacity="1" stroke-miterlimit="10"/></g><path fill="#e2dacd" d="M 367.738281 371.519531 L 314.769531 392.367188 L 351.617188 391.4375 L 384.785156 394.484375 L 409.140625 381.101562 L 367.738281 371.519531 " fill-opacity="1" fill-rule="nonzero"/><path stroke-linecap="butt" transform="matrix(0.139379, 0, 0, -0.13954, 1.391489, 737.887754)" fill="none" stroke-linejoin="miter" d="M 2628.426074 2625.540996 L 2248.39151 2476.138366 L 2512.762162 2482.800877 L 2750.732183 2460.965754 L 2925.475214 2556.872333 Z M 2628.426074 2625.540996 " stroke="#a7a097" stroke-width="5.757" stroke-opacity="1" stroke-miterlimit="10"/><path stroke-linecap="butt" transform="matrix(0.139379, 0, 0, -0.13954, 1.391489, 737.887754)" fill-opacity="1" fill="#e2dacd" fill-rule="nonzero" stroke-linejoin="miter" d="M 3024.323438 2534.057429 L 2870.712122 2445.653175 L 3404.610237 2446.129068 Z M 3024.323438 2534.057429 " stroke="#a7a097" stroke-width="5.757" stroke-opacity="1" stroke-miterlimit="10"/><path fill="#e2dacd" d="M 565.472656 417.273438 L 532.703125 421.90625 L 557.050781 427.765625 L 577.636719 420.089844 L 565.472656 417.273438 " fill-opacity="1" fill-rule="nonzero"/><path stroke-linecap="butt" transform="matrix(0.139379, 0, 0, -0.13954, 1.391489, 737.887754)" fill="none" stroke-linejoin="miter" d="M 4047.109675 2297.650232 L 3811.998321 2264.449647 L 3986.6853 2222.459026 L 4134.383099 2277.46674 Z M 4047.109675 2297.650232 " stroke="#a7a097" stroke-width="5.757" stroke-opacity="1" stroke-miterlimit="10"/><path fill="#e2dacd" d="M 282.679688 413.371094 L 253.804688 409.628906 C 244.269531 412 230.914062 412.367188 220.949219 410.699219 L 205.59375 415.714844 L 265.488281 427.527344 L 282.679688 413.371094 " fill-opacity="1" fill-rule="nonzero"/><path stroke-linecap="butt" transform="matrix(0.139379, 0, 0, -0.13954, 1.391489, 737.887754)" fill="none" stroke-linejoin="miter" d="M 2018.156706 2325.615985 L 1810.987422 2352.433995 C 1742.575595 2335.441791 1646.754196 2332.810379 1575.259493 2344.763709 L 1465.088706 2308.819737 L 1894.81363 2224.166645 Z M 2018.156706 2325.615985 " stroke="#a7a097" stroke-width="5.757" stroke-opacity="1" stroke-miterlimit="10"/><g clip-path="url(#3cf70b4cd6)"><path fill="#e2dacd" d="M 348.804688 511.089844 L 288.066406 538.1875 L 239.113281 535.734375 C 236.371094 538.488281 232.128906 541.109375 226.402344 543.359375 C 216.226562 547.367188 203.398438 549.4375 190.875 549.53125 L 173.890625 575.941406 L 297.535156 640.390625 L 389.75 592.394531 L 348.804688 511.089844 " fill-opacity="1" fill-rule="nonzero"/></g><g clip-path="url(#5125b8c331)"><path stroke-linecap="butt" transform="matrix(0.139379, 0, 0, -0.13954, 1.391489, 737.887754)" fill="none" stroke-linejoin="miter" d="M 2492.583336 1625.324399 L 2056.804764 1431.131772 L 1705.58108 1448.711846 C 1685.906724 1428.976254 1655.470328 1410.192449 1614.383995 1394.068051 C 1541.37588 1365.346466 1449.338011 1350.50978 1359.486181 1349.83793 L 1237.62849 1160.572203 L 2124.740146 698.703364 L 2786.353417 1042.662539 Z M 2492.583336 1625.324399 " stroke="#a7a097" stroke-width="5.757" stroke-opacity="1" stroke-miterlimit="10"/></g><g clip-path="url(#1e679cdfa6)"><path fill="#e2dacd" d="M 594.027344 475.410156 L 540.890625 465.34375 L 525.054688 479.367188 L 453.210938 486.101562 C 454.019531 489.335938 451.703125 492.5625 445.878906 495.121094 C 440.472656 497.496094 423.8125 500.734375 415.628906 501.128906 L 464.796875 550.109375 L 594.027344 485.738281 L 594.027344 475.410156 " fill-opacity="1" fill-rule="nonzero"/></g><g clip-path="url(#eb59e9a896)"><path stroke-linecap="butt" transform="matrix(0.139379, 0, 0, -0.13954, 1.391489, 737.887754)" fill="none" stroke-linejoin="miter" d="M 4251.980815 1881.019094 L 3870.741127 1953.158974 L 3757.123124 1852.661431 L 3241.666214 1804.400215 C 3247.467626 1781.221395 3230.848121 1758.098562 3189.061134 1739.762659 C 3150.272946 1722.742462 3030.741426 1699.535648 2972.026646 1696.70828 L 3324.791768 1345.694716 L 4251.980815 1807.003633 Z M 4251.980815 1881.019094 " stroke="#a7a097" stroke-width="5.757" stroke-opacity="1" stroke-miterlimit="10"/></g><path fill="#e2dacd" d="M 386.300781 475.78125 C 388.042969 475.105469 389.964844 474.527344 392.015625 474.03125 L 391.277344 461.972656 L 356.121094 462.035156 L 359.621094 501.851562 L 382.214844 490.535156 C 375.695312 487.039062 375.382812 480.023438 386.300781 475.78125 " fill-opacity="1" fill-rule="nonzero"/><path stroke-linecap="butt" transform="matrix(0.139379, 0, 0, -0.13954, 1.391489, 737.887754)" fill="none" stroke-linejoin="miter" d="M 2761.606328 1878.359882 C 2774.10599 1883.2028 2787.894855 1887.345875 2802.608583 1890.901081 L 2797.311641 1977.317779 L 2545.076311 1976.869879 L 2570.187739 1691.529611 L 2732.290978 1772.627498 C 2685.515337 1797.681902 2683.273245 1847.958672 2761.606328 1878.359882 Z M 2761.606328 1878.359882 " stroke="#a7a097" stroke-width="5.757" stroke-opacity="1" stroke-miterlimit="10"/><path fill="#e2dacd" d="M 410.855469 503.28125 C 407.085938 502.664062 391.429688 498.910156 388.101562 497.867188 L 363.777344 507.527344 L 407.28125 583.269531 L 459.070312 555.117188 L 410.855469 503.28125 " fill-opacity="1" fill-rule="nonzero"/><path stroke-linecap="butt" transform="matrix(0.139379, 0, 0, -0.13954, 1.391489, 737.887754)" fill="none" stroke-linejoin="miter" d="M 2937.778693 1681.2839 C 2910.733461 1685.706912 2798.40466 1712.608903 2774.526382 1720.083234 L 2600.00756 1650.854696 L 2912.134768 1108.055933 L 3283.705435 1309.806871 Z M 2937.778693 1681.2839 " stroke="#a7a097" stroke-width="5.757" stroke-opacity="1" stroke-miterlimit="10"/><path fill="#e2dacd" d="M 458.738281 407.171875 L 445.695312 404 L 446 401.023438 L 396.34375 400.636719 L 398.71875 414.335938 L 458.242188 410.269531 C 457.378906 409.207031 457.515625 408.125 458.738281 407.171875 " fill-opacity="1" fill-rule="nonzero"/><path stroke-linecap="butt" transform="matrix(0.139379, 0, 0, -0.13954, 1.391489, 737.887754)" fill="none" stroke-linejoin="miter" d="M 3281.323213 2370.042063 L 3187.743905 2392.772986 L 3189.929945 2414.104221 L 2833.661554 2416.875602 L 2850.701452 2318.70153 L 3277.763892 2347.843021 C 3271.570113 2355.45732 3272.551029 2363.211588 3281.323213 2370.042063 Z M 3281.323213 2370.042063 " stroke="#a7a097" stroke-width="5.757" stroke-opacity="1" stroke-miterlimit="10"/><path fill="#e2dacd" d="M 130.449219 406.980469 C 140.699219 401.210938 142.828125 396.007812 142.035156 392.023438 L 79.570312 416.058594 L 63.246094 431.722656 L 108.769531 436.355469 C 106.019531 426.390625 115.882812 415.183594 130.449219 406.980469 " fill-opacity="1" fill-rule="nonzero"/><path stroke-linecap="butt" transform="matrix(0.139379, 0, 0, -0.13954, 1.391489, 737.887754)" fill="none" stroke-linejoin="miter" d="M 925.949701 2371.413756 C 999.490312 2412.760521 1014.764563 2450.048193 1009.075255 2478.601815 L 560.909126 2306.356287 L 443.787854 2194.10136 L 770.40458 2160.900775 C 750.674172 2232.312825 821.440196 2312.626887 925.949701 2371.413756 Z M 925.949701 2371.413756 " stroke="#a7a097" stroke-width="5.757" stroke-opacity="1" stroke-miterlimit="10"/><path fill="#e2dacd" d="M 159.71875 409.914062 C 144.320312 419.230469 136.816406 433.488281 152.726562 440.832031 L 157.085938 441.277344 L 160.804688 427.917969 L 196.03125 415.75 L 170.289062 401.261719 C 168.144531 403.960938 164.773438 406.855469 159.71875 409.914062 " fill-opacity="1" fill-rule="nonzero"/><path stroke-linecap="butt" transform="matrix(0.139379, 0, 0, -0.13954, 1.391489, 737.887754)" fill="none" stroke-linejoin="miter" d="M 1135.949626 2350.390452 C 1025.470551 2283.625364 971.632322 2181.448186 1085.782821 2128.819941 L 1117.060002 2125.628653 L 1143.740895 2221.36727 L 1396.480696 2308.567793 L 1211.788382 2412.396603 C 1196.402027 2393.052923 1172.215461 2372.309556 1135.949626 2350.390452 Z M 1135.949626 2350.390452 " stroke="#a7a097" stroke-width="5.757" stroke-opacity="1" stroke-miterlimit="10"/><path fill="#e2dacd" d="M 148.230469 455.769531 C 137.34375 454.355469 129.710938 452.207031 124.496094 450.125 C 123.792969 449.847656 123.097656 449.558594 122.4375 449.257812 C 116.769531 446.722656 112.972656 443.753906 110.753906 440.53125 L 60.65625 435.71875 L 62.46875 517.855469 L 65.273438 519.3125 L 134.945312 518.089844 L 146.613281 463.660156 L 148.230469 455.769531 " fill-opacity="1" fill-rule="nonzero"/><path stroke-linecap="butt" transform="matrix(0.139379, 0, 0, -0.13954, 1.391489, 737.887754)" fill="none" stroke-linejoin="miter" d="M 1053.524725 2021.743857 C 975.415851 2031.905587 920.652759 2047.302148 883.237851 2062.222815 C 878.193145 2064.210372 873.204491 2066.281909 868.468072 2068.437427 C 827.802131 2086.605369 800.560715 2107.880618 784.641864 2130.975459 L 425.206518 2165.463756 L 438.210651 1576.839228 L 458.333425 1566.39756 L 958.207797 1575.159603 L 1041.9219 1965.22448 Z M 1053.524725 2021.743857 " stroke="#a7a097" stroke-width="5.757" stroke-opacity="1" stroke-miterlimit="10"/><path fill="#e2dacd" d="M 165.027344 442.253906 L 183.476562 445.015625 C 187.226562 444.941406 191.230469 444.753906 195.515625 444.445312 C 212.382812 443.222656 231.0625 441.167969 250.613281 438.839844 L 261.789062 430.21875 L 200.675781 417.921875 L 170.160156 428.699219 L 165.027344 442.253906 " fill-opacity="1" fill-rule="nonzero"/><path stroke-linecap="butt" transform="matrix(0.139379, 0, 0, -0.13954, 1.391489, 737.887754)" fill="none" stroke-linejoin="miter" d="M 1174.037161 2118.630217 L 1306.404657 2098.838637 C 1333.309759 2099.370518 1362.03656 2100.714218 1392.781244 2102.925724 C 1513.79815 2111.687767 1647.819189 2126.412478 1788.090059 2143.096752 L 1868.272868 2204.878953 L 1429.803786 2293.00327 L 1210.863519 2215.76852 Z M 1174.037161 2118.630217 " stroke="#a7a097" stroke-width="5.757" stroke-opacity="1" stroke-miterlimit="10"/><path fill="#e2dacd" d="M 172.515625 397.632812 L 202.515625 413.707031 L 215.21875 409.390625 C 215.179688 409.367188 215.132812 409.359375 215.085938 409.347656 C 205.140625 406.234375 206.773438 401.335938 218.320312 398.402344 C 227.761719 396 241.097656 395.609375 251.039062 397.203125 L 263.15625 393.078125 L 201.078125 377.777344 L 169.707031 385.03125 C 172.597656 388.128906 174.765625 392.449219 172.515625 397.632812 " fill-opacity="1" fill-rule="nonzero"/><path stroke-linecap="butt" transform="matrix(0.139379, 0, 0, -0.13954, 1.391489, 737.887754)" fill="none" stroke-linejoin="miter" d="M 1227.763286 2438.402794 L 1443.004101 2323.208523 L 1534.145134 2354.141614 C 1533.864872 2354.309577 1533.528559 2354.365564 1533.192245 2354.449545 C 1461.837672 2376.760562 1473.552602 2411.864721 1556.397895 2432.888026 C 1624.137094 2450.10418 1719.818363 2452.903555 1791.144909 2441.482106 L 1878.082019 2471.043504 L 1432.690479 2580.695012 L 1207.612486 2528.710623 C 1228.351835 2506.511582 1243.906347 2475.550497 1227.763286 2438.402794 Z M 1227.763286 2438.402794 " stroke="#a7a097" stroke-width="5.757" stroke-opacity="1" stroke-miterlimit="10"/><path fill="#e2dacd" d="M 271.480469 436.324219 C 277.796875 435.554688 284.152344 434.78125 290.53125 434.015625 L 276.050781 432.410156 L 271.039062 436.378906 C 271.183594 436.355469 271.335938 436.339844 271.480469 436.324219 " fill-opacity="1" fill-rule="nonzero"/><path stroke-linecap="butt" transform="matrix(0.139379, 0, 0, -0.13954, 1.391489, 737.887754)" fill="none" stroke-linejoin="miter" d="M 1937.80574 2161.124725 C 1983.124021 2166.639494 2028.722564 2172.182256 2074.489263 2177.66903 L 1970.596333 2189.17446 L 1934.638786 2160.732813 C 1935.675753 2160.900775 1936.768773 2161.01275 1937.80574 2161.124725 Z M 1937.80574 2161.124725 " stroke="#a7a097" stroke-width="5.757" stroke-opacity="1" stroke-miterlimit="10"/><path fill="#e2dacd" d="M 344.128906 439.980469 C 324.609375 441.996094 304.402344 444.554688 284.078125 447.132812 C 273.417969 448.476562 262.878906 449.808594 252.511719 451.054688 L 248.632812 454.125 L 346.097656 458.820312 L 345.085938 440.089844 L 344.128906 439.980469 " fill-opacity="1" fill-rule="nonzero"/><path stroke-linecap="butt" transform="matrix(0.139379, 0, 0, -0.13954, 1.391489, 737.887754)" fill="none" stroke-linejoin="miter" d="M 2459.036037 2134.922578 C 2318.989376 2120.477804 2174.010114 2102.141899 2028.190067 2083.666026 C 1951.70671 2074.036177 1876.092163 2064.490309 1801.710767 2055.560304 L 1773.880802 2033.557218 L 2473.161215 1999.908734 L 2465.902443 2134.138753 Z M 2459.036037 2134.922578 " stroke="#a7a097" stroke-width="5.757" stroke-opacity="1" stroke-miterlimit="10"/><path fill="#e2dacd" d="M 387.972656 425.460938 L 386.648438 417.816406 L 352.148438 414.734375 L 353.226562 427.507812 C 364.863281 426.578125 376.46875 425.863281 387.972656 425.460938 " fill-opacity="1" fill-rule="nonzero"/><path stroke-linecap="butt" transform="matrix(0.139379, 0, 0, -0.13954, 1.391489, 737.887754)" fill="none" stroke-linejoin="miter" d="M 2773.60152 2238.975337 L 2764.100656 2293.759101 L 2516.573718 2315.846168 L 2524.308935 2224.306613 C 2607.798829 2230.969125 2691.064514 2236.091981 2773.60152 2238.975337 Z M 2773.60152 2238.975337 " stroke="#a7a097" stroke-width="5.757" stroke-opacity="1" stroke-miterlimit="10"/><path fill="#e2dacd" d="M 364.414062 438.074219 L 390.316406 439.03125 L 389.867188 436.398438 C 381.542969 436.78125 373.046875 437.351562 364.414062 438.074219 " fill-opacity="1" fill-rule="nonzero"/><path stroke-linecap="butt" transform="matrix(0.139379, 0, 0, -0.13954, 1.391489, 737.887754)" fill="none" stroke-linejoin="miter" d="M 2604.575822 2148.583526 L 2790.417208 2141.725058 L 2787.194201 2160.592844 C 2727.47048 2157.849457 2666.513609 2153.76237 2604.575822 2148.583526 Z M 2604.575822 2148.583526 " stroke="#a7a097" stroke-width="5.757" stroke-opacity="1" stroke-miterlimit="10"/><path fill="#e2dacd" d="M 474.84375 430.261719 C 492.425781 433.234375 510.859375 435.847656 529.480469 438.027344 L 551.664062 429.765625 L 524.246094 423.097656 L 474.246094 430.164062 C 474.441406 430.195312 474.640625 430.230469 474.84375 430.261719 " fill-opacity="1" fill-rule="nonzero"/><path stroke-linecap="butt" transform="matrix(0.139379, 0, 0, -0.13954, 1.391489, 737.887754)" fill="none" stroke-linejoin="miter" d="M 3396.87502 2204.571021 C 3523.020711 2183.26778 3655.276103 2164.539962 3788.876749 2148.919451 L 3948.037243 2208.126227 L 3751.321711 2255.911554 L 3392.58702 2205.270865 C 3393.988327 2205.046915 3395.417661 2204.794971 3396.87502 2204.571021 Z M 3396.87502 2204.571021 " stroke="#a7a097" stroke-width="5.757" stroke-opacity="1" stroke-miterlimit="10"/><path fill="#e2dacd" d="M 461.566406 439.761719 C 451.523438 437.996094 441.148438 436.917969 430.488281 436.34375 L 403.207031 440.210938 L 406.390625 458.574219 L 475.277344 458.214844 L 506.265625 446.675781 C 490.941406 444.597656 475.9375 442.285156 461.566406 439.761719 " fill-opacity="1" fill-rule="nonzero"/><path stroke-linecap="butt" transform="matrix(0.139379, 0, 0, -0.13954, 1.391489, 737.887754)" fill="none" stroke-linejoin="miter" d="M 3301.614144 2136.490227 C 3229.558918 2149.143401 3155.121469 2156.869676 3078.638112 2160.984757 L 2882.903496 2133.270947 L 2905.744806 2001.67234 L 3400.013949 2004.247764 L 3622.317353 2086.941294 C 3512.370775 2101.833968 3404.722342 2118.406267 3301.614144 2136.490227 Z M 3301.614144 2136.490227 " stroke="#a7a097" stroke-width="5.757" stroke-opacity="1" stroke-miterlimit="10"/><path fill="#e2dacd" d="M 462.207031 428.375 L 515.394531 420.945312 L 491.300781 415.085938 C 484.269531 416.3125 474.082031 415.953125 466.339844 414.035156 C 464.804688 413.652344 463.488281 413.234375 462.355469 412.785156 L 399.207031 417.140625 L 400.597656 425.148438 C 421.28125 424.867188 441.859375 425.722656 462.207031 428.375 " fill-opacity="1" fill-rule="nonzero"/><path stroke-linecap="butt" transform="matrix(0.139379, 0, 0, -0.13954, 1.391489, 737.887754)" fill="none" stroke-linejoin="miter" d="M 3306.210432 2218.092001 L 3687.81446 2271.336109 L 3514.949181 2313.32673 C 3464.502115 2304.536694 3391.409921 2307.112118 3335.862097 2320.857048 C 3324.84782 2323.600436 3315.403009 2326.595767 3307.275426 2329.815048 L 2854.232747 2298.602019 L 2864.182029 2241.214837 C 3012.580482 2243.230387 3160.222228 2237.099756 3306.210432 2218.092001 Z M 3306.210432 2218.092001 " stroke="#a7a097" stroke-width="5.757" stroke-opacity="1" stroke-miterlimit="10"/><path fill="#e2dacd" d="M 402.476562 435.980469 L 402.601562 436.703125 L 408.464844 435.886719 C 406.484375 435.902344 404.480469 435.9375 402.476562 435.980469 " fill-opacity="1" fill-rule="nonzero"/><path stroke-linecap="butt" transform="matrix(0.139379, 0, 0, -0.13954, 1.391489, 737.887754)" fill="none" stroke-linejoin="miter" d="M 2877.662606 2163.588175 L 2878.559443 2158.409332 L 2920.626691 2164.260025 C 2906.417434 2164.14805 2892.04002 2163.896106 2877.662606 2163.588175 Z M 2877.662606 2163.588175 " stroke="#a7a097" stroke-width="5.757" stroke-opacity="1" stroke-miterlimit="10"/><g clip-path="url(#f22b51eb5c)"><path fill="#e2dacd" d="M 594.027344 440.066406 L 560.371094 431.878906 L 540.796875 439.304688 C 558.867188 441.25 576.824219 442.742188 594.027344 443.726562 L 594.027344 440.066406 " fill-opacity="1" fill-rule="nonzero"/></g><g clip-path="url(#12d7882bf1)"><path stroke-linecap="butt" transform="matrix(0.139379, 0, 0, -0.13954, 1.391489, 737.887754)" fill="none" stroke-linejoin="miter" d="M 4251.980815 2134.306495 L 4010.507526 2192.981384 L 3870.068499 2139.765275 C 3999.717459 2125.824391 4128.55366 2115.13078 4251.980815 2108.076356 Z M 4251.980815 2134.306495 " stroke="#a7a097" stroke-width="5.757" stroke-opacity="1" stroke-miterlimit="10"/></g><path fill="#e2dacd" d="M 517.492188 448.140625 L 491.128906 458.136719 L 524.261719 457.960938 L 531.832031 449.878906 C 527.039062 449.328125 522.253906 448.746094 517.492188 448.140625 " fill-opacity="1" fill-rule="nonzero"/><path stroke-linecap="butt" transform="matrix(0.139379, 0, 0, -0.13954, 1.391489, 737.887754)" fill="none" stroke-linejoin="miter" d="M 3702.864502 2076.443639 L 3513.71603 2004.807639 L 3751.433816 2006.067358 L 3805.74849 2063.986422 C 3771.360407 2067.93354 3737.028376 2072.104608 3702.864502 2076.443639 Z M 3702.864502 2076.443639 " stroke="#a7a097" stroke-width="5.757" stroke-opacity="1" stroke-miterlimit="10"/><g clip-path="url(#e5e1bc9484)"><path fill="#e2dacd" d="M 594.027344 423.882812 L 586.226562 422.082031 L 565.734375 429.847656 L 594.027344 436.648438 L 594.027344 423.882812 " fill-opacity="1" fill-rule="nonzero"/></g><g clip-path="url(#1af31a2a20)"><path stroke-linecap="butt" transform="matrix(0.139379, 0, 0, -0.13954, 1.391489, 737.887754)" fill="none" stroke-linejoin="miter" d="M 4251.980815 2250.284579 L 4196.012598 2263.189695 L 4048.987427 2207.538131 L 4251.980815 2158.801022 Z M 4251.980815 2250.284579 " stroke="#a7a097" stroke-width="5.757" stroke-opacity="1" stroke-miterlimit="10"/></g><g clip-path="url(#b08acb21cf)"><path fill="#e2dacd" d="M 594.027344 456.589844 L 584.070312 454.800781 C 572.261719 453.941406 560.257812 452.886719 548.203125 451.652344 L 539.300781 459.210938 L 594.027344 469.167969 L 594.027344 456.589844 " fill-opacity="1" fill-rule="nonzero"/></g><g clip-path="url(#377938b434)"><path stroke-linecap="butt" transform="matrix(0.139379, 0, 0, -0.13954, 1.391489, 737.887754)" fill="none" stroke-linejoin="miter" d="M 4251.980815 2015.892956 L 4180.542165 2028.714091 C 4095.81912 2034.872714 4009.694768 2042.431025 3923.206076 2051.277049 L 3859.334485 1997.109153 L 4251.980815 1925.753098 Z M 4251.980815 2015.892956 " stroke="#a7a097" stroke-width="5.757" stroke-opacity="1" stroke-miterlimit="10"/></g><path fill="#e2dacd" d="M 303.550781 432.492188 C 317.230469 430.910156 330.984375 429.4375 344.648438 428.234375 L 343.875 414.296875 L 297.15625 414.289062 L 278.886719 429.707031 L 303.550781 432.492188 " fill-opacity="1" fill-rule="nonzero"/><path stroke-linecap="butt" transform="matrix(0.139379, 0, 0, -0.13954, 1.391489, 737.887754)" fill="none" stroke-linejoin="miter" d="M 2167.900414 2188.586592 C 2266.047983 2199.924059 2364.72805 2210.477702 2462.763515 2219.099776 L 2457.214337 2318.981467 L 2122.02161 2319.009461 L 1990.943317 2208.546133 Z M 2167.900414 2188.586592 " stroke="#a7a097" stroke-width="5.757" stroke-opacity="1" stroke-miterlimit="10"/><path fill="#e2dacd" d="M 183.78125 490.136719 L 229.265625 455.515625 L 222.296875 454.425781 C 214.800781 455.175781 207.425781 455.847656 200.214844 456.386719 C 183.199219 457.671875 169.203125 457.601562 157.847656 456.746094 L 143.535156 517.457031 L 156.238281 520.3125 C 158.9375 518.707031 162.226562 517.203125 166.066406 515.871094 C 171.230469 514.074219 176.925781 512.75 182.796875 511.875 L 183.78125 490.136719 " fill-opacity="1" fill-rule="nonzero"/><path stroke-linecap="butt" transform="matrix(0.139379, 0, 0, -0.13954, 1.391489, 737.887754)" fill="none" stroke-linejoin="miter" d="M 1308.590696 1775.454866 L 1634.927161 2023.591444 L 1584.928514 2031.401699 C 1531.146336 2026.0269 1478.232969 2021.211975 1426.4967 2017.348838 C 1304.4148 2008.138895 1203.997113 2008.642783 1122.525101 2014.773413 L 1019.837296 1579.69459 L 1110.978328 1559.231161 C 1130.344396 1570.736591 1153.942413 1581.514184 1181.492116 1591.060052 C 1218.542684 1603.937176 1259.404807 1613.427056 1301.528107 1619.697655 Z M 1308.590696 1775.454866 " stroke="#a7a097" stroke-width="5.757" stroke-opacity="1" stroke-miterlimit="10"/><path fill="#61ccf5" d="M 343.871094 436.082031 C 344.519531 434.675781 346.71875 432.503906 345.78125 430.871094 C 322.050781 433.015625 297.9375 435.980469 274.453125 438.863281 C 271.882812 439.179688 269.324219 439.496094 266.773438 439.804688 C 264.996094 442.402344 261.660156 444.871094 257.859375 447.324219 C 265.480469 446.390625 273.183594 445.425781 280.964844 444.449219 C 302.132812 441.796875 323.171875 439.15625 343.539062 437.109375 C 343.609375 436.765625 343.714844 436.425781 343.871094 436.082031 " fill-opacity="1" fill-rule="nonzero"/><path stroke-linecap="butt" transform="matrix(0.139379, 0, 0, -0.13954, 1.391489, 737.887754)" fill="none" stroke-linejoin="miter" d="M 2457.186311 2162.860338 C 2461.838652 2172.938087 2477.617373 2188.50261 2470.891097 2200.203997 C 2300.63225 2184.835429 2127.626839 2163.588175 1959.133639 2142.928789 C 1940.692434 2140.661296 1922.335307 2138.393802 1904.034232 2136.182296 C 1891.282335 2117.566454 1867.348005 2099.874406 1840.078563 2082.294332 C 1894.757577 2088.984838 1950.025141 2095.899294 2005.853227 2102.897731 C 2157.726922 2121.905485 2308.675754 2140.829258 2454.804089 2155.497982 C 2455.308559 2157.961432 2456.065265 2160.396888 2457.186311 2162.860338 Z M 2457.186311 2162.860338 " stroke="#4895b6" stroke-width="5.757" stroke-opacity="1" stroke-miterlimit="10"/><path fill="#61ccf5" d="M 389.265625 428.015625 C 378.703125 428.390625 368.023438 429.046875 357.277344 429.898438 C 358.6875 431.824219 357.394531 434.035156 356.511719 435.882812 C 368.300781 434.839844 379.882812 434.042969 391.183594 433.59375 C 390.800781 431.707031 389.578125 429.847656 389.265625 428.015625 " fill-opacity="1" fill-rule="nonzero"/><path stroke-linecap="butt" transform="matrix(0.139379, 0, 0, -0.13954, 1.391489, 737.887754)" fill="none" stroke-linejoin="miter" d="M 2782.878175 2220.667426 C 2707.095471 2217.980026 2630.471983 2213.277077 2553.37205 2207.17444 C 2563.48949 2193.345529 2554.212835 2177.529061 2547.878925 2164.288019 C 2632.461839 2171.762349 2715.559368 2177.473074 2796.639013 2180.692355 C 2793.892451 2194.213335 2785.120266 2207.538359 2782.878175 2220.667426 Z M 2782.878175 2220.667426 " stroke="#4895b6" stroke-width="5.757" stroke-opacity="1" stroke-miterlimit="10"/><path fill="#61ccf5" d="M 540.402344 441.992188 C 517.390625 439.515625 494.160156 436.328125 471.714844 432.503906 C 448.722656 428.589844 425.125 427.34375 401.234375 427.710938 C 401.539062 429.535156 402.976562 431.375 403.367188 433.25 C 424.632812 432.90625 445.191406 434 464.851562 437.417969 C 486.945312 441.257812 510.53125 444.601562 534.363281 447.300781 C 536.742188 445.574219 538.875 443.828125 540.402344 441.992188 " fill-opacity="1" fill-rule="nonzero"/><path stroke-linecap="butt" transform="matrix(0.139379, 0, 0, -0.13954, 1.391489, 737.887754)" fill="none" stroke-linejoin="miter" d="M 3867.237859 2120.505798 C 3702.135822 2138.253834 3535.464321 2161.096732 3374.426076 2188.50261 C 3209.46417 2216.552345 3040.158211 2225.482351 2868.750291 2222.850938 C 2870.936331 2209.777858 2881.249953 2196.592803 2884.052568 2183.155805 C 3036.626917 2185.619254 3184.128532 2177.781005 3325.184134 2153.286476 C 3483.700026 2125.768622 3652.921906 2101.805974 3823.909434 2082.462295 C 3840.977358 2094.835531 3856.279635 2107.348736 3867.237859 2120.505798 Z M 3867.237859 2120.505798 " stroke="#4895b6" stroke-width="5.757" stroke-opacity="1" stroke-miterlimit="10"/><g clip-path="url(#9a5774a04b)"><path fill="#61ccf5" d="M 594.027344 446.484375 C 582.988281 445.835938 571.597656 444.988281 559.957031 443.933594 C 559.925781 444.03125 559.882812 444.128906 559.820312 444.222656 C 558.632812 446.027344 556.808594 447.738281 554.714844 449.425781 C 568.007812 450.714844 581.183594 451.769531 594.027344 452.578125 L 594.027344 446.484375 " fill-opacity="1" fill-rule="nonzero"/></g><g clip-path="url(#7210fbeb14)"><path stroke-linecap="butt" transform="matrix(0.139379, 0, 0, -0.13954, 1.391489, 737.887754)" fill="none" stroke-linejoin="miter" d="M 4251.980815 2088.312773 C 4172.778922 2092.959734 4091.054675 2099.034377 4007.536754 2106.592688 C 4007.312545 2105.892844 4007.004258 2105.193001 4006.555839 2104.521151 C 3998.03589 2091.588041 3984.947679 2079.326781 3969.925664 2067.233483 C 4065.298645 2057.995547 4159.830841 2050.437236 4251.980815 2044.642531 Z M 4251.980815 2088.312773 " stroke="#4895b6" stroke-width="5.757" stroke-opacity="1" stroke-miterlimit="10"/></g><path fill="#61ccf5" d="M 150.828125 393.648438 C 155.746094 394.296875 161.050781 394.898438 165.683594 395.714844 C 166.636719 392.023438 165.269531 388.875 163.289062 386.421875 L 148.921875 389.746094 C 149.453125 390.890625 149.78125 392.167969 149.757812 393.546875 C 150.113281 393.566406 150.472656 393.601562 150.828125 393.648438 " fill-opacity="1" fill-rule="nonzero"/><path stroke-linecap="butt" transform="matrix(0.139379, 0, 0, -0.13954, 1.391489, 737.887754)" fill="none" stroke-linejoin="miter" d="M 1072.162114 2466.956416 C 1107.447034 2462.309454 1145.506542 2457.998417 1178.745554 2452.147724 C 1185.583934 2478.601815 1175.774782 2501.164776 1161.565525 2518.744849 L 1058.485354 2494.92217 C 1062.29691 2486.720002 1064.651106 2477.566047 1064.482949 2467.684254 C 1067.033329 2467.544285 1069.611734 2467.292341 1072.162114 2466.956416 Z M 1072.162114 2466.956416 " stroke="#4895b6" stroke-width="5.757" stroke-opacity="1" stroke-miterlimit="10"/><path fill="#61ccf5" d="M 244.421875 442.492188 C 227.632812 444.457031 211.527344 446.160156 196.613281 447.25 C 187.558594 447.910156 179.40625 448.085938 172.179688 447.785156 C 172.261719 449.894531 170.121094 451.992188 167.34375 454.121094 C 176.273438 454.492188 186.777344 454.339844 199.046875 453.425781 C 209.605469 452.636719 220.582031 451.574219 231.839844 450.347656 C 236.183594 447.699219 240.851562 445.125 244.421875 442.492188 " fill-opacity="1" fill-rule="nonzero"/><path stroke-linecap="butt" transform="matrix(0.139379, 0, 0, -0.13954, 1.391489, 737.887754)" fill="none" stroke-linejoin="miter" d="M 1743.668615 2116.922598 C 1623.212231 2102.841743 1507.660424 2090.636469 1400.656592 2082.826214 C 1335.691981 2078.09527 1277.201411 2076.835552 1225.353037 2078.99107 C 1225.941587 2063.874447 1210.583258 2048.841804 1190.656666 2033.585212 C 1254.72444 2030.925806 1330.086752 2032.017562 1418.116882 2038.568099 C 1493.871559 2044.222836 1572.625035 2051.837135 1653.396393 2060.627172 C 1684.561469 2079.606933 1718.052716 2098.054812 1743.668615 2116.922598 Z M 1743.668615 2116.922598 " stroke="#4895b6" stroke-width="5.757" stroke-opacity="1" stroke-miterlimit="10"/><path fill="#61ccf5" d="M 158.28125 446.613281 C 158.1875 446.542969 158.109375 446.46875 158.050781 446.394531 C 153.460938 445.609375 149.53125 444.53125 146.296875 443.164062 C 126.757812 434.867188 135.820312 419.167969 152.59375 409.199219 C 158.507812 405.691406 162.0625 402.390625 164.011719 399.382812 C 162.746094 399.007812 161.382812 398.664062 159.84375 398.402344 C 156.40625 397.808594 152.738281 397.304688 149.0625 396.820312 C 147.734375 400.058594 144.359375 403.726562 137.460938 407.679688 C 117.308594 419.21875 106.773438 437.027344 130.125 447.296875 C 130.703125 447.546875 131.308594 447.800781 131.949219 448.054688 C 137.089844 450.066406 144.585938 452.058594 155.328125 453.238281 C 158.316406 451.023438 160.800781 448.664062 158.28125 446.613281 " fill-opacity="1" fill-rule="nonzero"/><path stroke-linecap="butt" transform="matrix(0.139379, 0, 0, -0.13954, 1.391489, 737.887754)" fill="none" stroke-linejoin="miter" d="M 1125.636004 2087.389194 C 1124.963376 2087.893082 1124.402853 2088.424963 1123.982461 2088.956844 C 1091.051737 2094.583588 1062.857433 2102.309862 1039.651782 2112.107673 C 899.464991 2171.566393 964.485654 2284.073264 1084.829932 2355.513308 C 1127.26152 2380.651693 1152.765315 2404.30641 1166.750362 2425.861595 C 1157.669891 2428.548995 1147.888765 2431.012445 1136.846463 2432.888026 C 1112.183453 2437.143075 1085.8669 2440.754269 1059.494295 2444.225493 C 1049.965405 2421.018677 1025.750813 2394.732548 976.256636 2366.402875 C 831.669739 2283.709345 756.083219 2156.085851 923.62353 2082.490289 C 927.7714 2080.698689 932.115453 2078.879095 936.711741 2077.059502 C 973.594152 2062.642722 1027.376329 2048.36591 1104.448236 2039.911799 C 1125.888239 2055.784254 1143.712869 2072.692477 1125.636004 2087.389194 Z M 1125.636004 2087.389194 " stroke="#4895b6" stroke-width="5.757" stroke-opacity="1" stroke-miterlimit="10"/><g clip-path="url(#e2a6471c3c)"><path stroke-linecap="butt" transform="matrix(0.139379, 0, 0, -0.13954, 1.391489, 737.887754)" fill="none" stroke-linejoin="miter" d="M 3317.981414 1314.929727 L 2940.104864 1705.246548 C 2940.104864 1705.246548 2857.315623 1712.105016 2775.114932 1756.615074 L 2049.602044 1458.705614 L 1691.119588 1473.5423 C 1691.119588 1473.5423 1727.077135 1604.804982 1403.43118 1613.371068 C 1317.446959 1615.638562 1189.367464 1595.119145 1121.432081 1534.036788 L 983.319225 1571.716372 L 1092.901463 2022.527682 C 1092.901463 2022.527682 815.470626 2071.600721 801.793866 2141.221171 L 639.690627 2160.620838 " stroke="#f14624" stroke-width="57.569" stroke-opacity="1" stroke-miterlimit="10"/></g><g clip-path="url(#97b646ae10)"><path fill="#897d7d" d="M 349.90625 326.449219 C 349.90625 297.019531 325.859375 273.167969 296.199219 273.167969 C 266.535156 273.167969 242.480469 297.019531 242.480469 326.449219 C 242.480469 326.96875 242.550781 327.488281 242.558594 328.011719 C 242.558594 328.023438 242.519531 328.023438 242.519531 328.023438 C 242.519531 329.210938 242.609375 330.453125 242.746094 331.738281 C 242.773438 331.976562 242.8125 332.195312 242.824219 332.433594 C 242.964844 333.523438 243.136719 334.652344 243.355469 335.800781 C 243.492188 336.613281 243.640625 337.414062 243.828125 338.199219 C 252.03125 374.308594 296.1875 436.519531 296.1875 436.519531 C 296.1875 436.519531 335.832031 379.5625 346.996094 343.644531 C 347.875 341.046875 348.570312 338.367188 349.050781 335.609375 C 349.574219 332.875 349.902344 330.328125 349.902344 328.023438 C 349.902344 327.851562 349.839844 327.699219 349.839844 327.53125 C 349.847656 327.167969 349.90625 326.816406 349.90625 326.449219 Z M 296.199219 354.253906 C 280.480469 354.253906 267.75 341.628906 267.75 326.054688 C 267.75 310.476562 280.476562 297.851562 296.199219 297.851562 C 311.894531 297.851562 324.632812 310.476562 324.632812 326.054688 C 324.632812 341.625 311.894531 354.253906 296.199219 354.253906 Z M 296.199219 354.253906 " fill-opacity="1" fill-rule="nonzero"/></g><g fill="#ff00ff" fill-opacity="1"><g transform="translate(168.689439, 536.398219)"><g><path d="M 51.640625 -20.8125 C 51.640625 -13.320312 49.503906 -7.804688 45.234375 -4.265625 C 40.972656 -0.722656 34.832031 1.046875 26.8125 1.046875 C 18.800781 1.046875 12.660156 -0.722656 8.390625 -4.265625 C 4.128906 -7.804688 2 -13.320312 2 -20.8125 L 2 -21.59375 L 20.03125 -21.59375 L 20.03125 -20.90625 C 20.03125 -18.175781 20.535156 -16.226562 21.546875 -15.0625 C 22.566406 -13.90625 24.117188 -13.328125 26.203125 -13.328125 C 28.296875 -13.328125 29.847656 -13.90625 30.859375 -15.0625 C 31.878906 -16.226562 32.390625 -18.175781 32.390625 -20.90625 L 32.390625 -59.90625 L 51.640625 -59.90625 Z M 51.640625 -20.8125 "/></g></g></g><g fill="#ff00ff" fill-opacity="1"><g transform="translate(226.754442, 536.398219)"><g><path d="M 66.09375 -24.125 C 66.09375 -15.9375 63.507812 -9.691406 58.34375 -5.390625 C 53.175781 -1.097656 45.832031 1.046875 36.3125 1.046875 C 26.789062 1.046875 19.429688 -1.097656 14.234375 -5.390625 C 9.035156 -9.691406 6.4375 -15.9375 6.4375 -24.125 L 6.4375 -59.90625 L 25.6875 -59.90625 L 25.6875 -24.375 C 25.6875 -21.007812 26.585938 -18.328125 28.390625 -16.328125 C 30.191406 -14.328125 32.800781 -13.328125 36.21875 -13.328125 C 39.644531 -13.328125 42.269531 -14.34375 44.09375 -16.375 C 45.925781 -18.40625 46.84375 -21.070312 46.84375 -24.375 L 46.84375 -59.90625 L 66.09375 -59.90625 Z M 66.09375 -24.125 "/></g></g></g><g fill="#ff00ff" fill-opacity="1"><g transform="translate(299.270387, 536.398219)"><g><path d="M 63.3125 -41.53125 C 63.3125 -37.875 62.320312 -34.566406 60.34375 -31.609375 C 58.375 -28.648438 55.5 -26.472656 51.71875 -25.078125 L 65.046875 0 L 43.453125 0 L 32.828125 -21.859375 L 25.6875 -21.859375 L 25.6875 0 L 6.4375 0 L 6.4375 -59.90625 L 43.109375 -59.90625 C 47.398438 -59.90625 51.066406 -59.078125 54.109375 -57.421875 C 57.160156 -55.773438 59.457031 -53.539062 61 -50.71875 C 62.539062 -47.90625 63.3125 -44.84375 63.3125 -41.53125 Z M 43.71875 -40.75 C 43.71875 -42.320312 43.191406 -43.628906 42.140625 -44.671875 C 41.097656 -45.710938 39.820312 -46.234375 38.3125 -46.234375 L 25.6875 -46.234375 L 25.6875 -35.171875 L 38.3125 -35.171875 C 39.820312 -35.171875 41.097656 -35.707031 42.140625 -36.78125 C 43.191406 -37.863281 43.71875 -39.1875 43.71875 -40.75 Z M 43.71875 -40.75 "/></g></g></g><g fill="#ff00ff" fill-opacity="1"><g transform="translate(366.998381, 536.398219)"><g><path d="M 6.4375 -59.90625 L 58.25 -59.90625 L 58.25 -45.546875 L 25.6875 -45.546875 L 25.6875 -37.265625 L 53.546875 -37.265625 L 53.546875 -23.515625 L 25.6875 -23.515625 L 25.6875 -14.375 L 58.859375 -14.375 L 58.859375 0 L 6.4375 0 Z M 6.4375 -59.90625 "/></g></g></g><g fill="#00ffff" fill-opacity="1"><g transform="translate(165.424015, 536.398219)"><g><path d="M 51.640625 -20.8125 C 51.640625 -13.320312 49.503906 -7.804688 45.234375 -4.265625 C 40.972656 -0.722656 34.832031 1.046875 26.8125 1.046875 C 18.800781 1.046875 12.660156 -0.722656 8.390625 -4.265625 C 4.128906 -7.804688 2 -13.320312 2 -20.8125 L 2 -21.59375 L 20.03125 -21.59375 L 20.03125 -20.90625 C 20.03125 -18.175781 20.535156 -16.226562 21.546875 -15.0625 C 22.566406 -13.90625 24.117188 -13.328125 26.203125 -13.328125 C 28.296875 -13.328125 29.847656 -13.90625 30.859375 -15.0625 C 31.878906 -16.226562 32.390625 -18.175781 32.390625 -20.90625 L 32.390625 -59.90625 L 51.640625 -59.90625 Z M 51.640625 -20.8125 "/></g></g></g><g fill="#00ffff" fill-opacity="1"><g transform="translate(223.489018, 536.398219)"><g><path d="M 66.09375 -24.125 C 66.09375 -15.9375 63.507812 -9.691406 58.34375 -5.390625 C 53.175781 -1.097656 45.832031 1.046875 36.3125 1.046875 C 26.789062 1.046875 19.429688 -1.097656 14.234375 -5.390625 C 9.035156 -9.691406 6.4375 -15.9375 6.4375 -24.125 L 6.4375 -59.90625 L 25.6875 -59.90625 L 25.6875 -24.375 C 25.6875 -21.007812 26.585938 -18.328125 28.390625 -16.328125 C 30.191406 -14.328125 32.800781 -13.328125 36.21875 -13.328125 C 39.644531 -13.328125 42.269531 -14.34375 44.09375 -16.375 C 45.925781 -18.40625 46.84375 -21.070312 46.84375 -24.375 L 46.84375 -59.90625 L 66.09375 -59.90625 Z M 66.09375 -24.125 "/></g></g></g><g fill="#00ffff" fill-opacity="1"><g transform="translate(296.004963, 536.398219)"><g><path d="M 63.3125 -41.53125 C 63.3125 -37.875 62.320312 -34.566406 60.34375 -31.609375 C 58.375 -28.648438 55.5 -26.472656 51.71875 -25.078125 L 65.046875 0 L 43.453125 0 L 32.828125 -21.859375 L 25.6875 -21.859375 L 25.6875 0 L 6.4375 0 L 6.4375 -59.90625 L 43.109375 -59.90625 C 47.398438 -59.90625 51.066406 -59.078125 54.109375 -57.421875 C 57.160156 -55.773438 59.457031 -53.539062 61 -50.71875 C 62.539062 -47.90625 63.3125 -44.84375 63.3125 -41.53125 Z M 43.71875 -40.75 C 43.71875 -42.320312 43.191406 -43.628906 42.140625 -44.671875 C 41.097656 -45.710938 39.820312 -46.234375 38.3125 -46.234375 L 25.6875 -46.234375 L 25.6875 -35.171875 L 38.3125 -35.171875 C 39.820312 -35.171875 41.097656 -35.707031 42.140625 -36.78125 C 43.191406 -37.863281 43.71875 -39.1875 43.71875 -40.75 Z M 43.71875 -40.75 "/></g></g></g><g fill="#00ffff" fill-opacity="1"><g transform="translate(363.732957, 536.398219)"><g><path d="M 6.4375 -59.90625 L 58.25 -59.90625 L 58.25 -45.546875 L 25.6875 -45.546875 L 25.6875 -37.265625 L 53.546875 -37.265625 L 53.546875 -23.515625 L 25.6875 -23.515625 L 25.6875 -14.375 L 58.859375 -14.375 L 58.859375 0 L 6.4375 0 Z M 6.4375 -59.90625 "/></g></g></g><g fill="#004aad" fill-opacity="1"><g transform="translate(167.056725, 536.398219)"><g><path d="M 51.640625 -20.8125 C 51.640625 -13.320312 49.503906 -7.804688 45.234375 -4.265625 C 40.972656 -0.722656 34.832031 1.046875 26.8125 1.046875 C 18.800781 1.046875 12.660156 -0.722656 8.390625 -4.265625 C 4.128906 -7.804688 2 -13.320312 2 -20.8125 L 2 -21.59375 L 20.03125 -21.59375 L 20.03125 -20.90625 C 20.03125 -18.175781 20.535156 -16.226562 21.546875 -15.0625 C 22.566406 -13.90625 24.117188 -13.328125 26.203125 -13.328125 C 28.296875 -13.328125 29.847656 -13.90625 30.859375 -15.0625 C 31.878906 -16.226562 32.390625 -18.175781 32.390625 -20.90625 L 32.390625 -59.90625 L 51.640625 -59.90625 Z M 51.640625 -20.8125 "/></g></g></g><g fill="#004aad" fill-opacity="1"><g transform="translate(225.121729, 536.398219)"><g><path d="M 66.09375 -24.125 C 66.09375 -15.9375 63.507812 -9.691406 58.34375 -5.390625 C 53.175781 -1.097656 45.832031 1.046875 36.3125 1.046875 C 26.789062 1.046875 19.429688 -1.097656 14.234375 -5.390625 C 9.035156 -9.691406 6.4375 -15.9375 6.4375 -24.125 L 6.4375 -59.90625 L 25.6875 -59.90625 L 25.6875 -24.375 C 25.6875 -21.007812 26.585938 -18.328125 28.390625 -16.328125 C 30.191406 -14.328125 32.800781 -13.328125 36.21875 -13.328125 C 39.644531 -13.328125 42.269531 -14.34375 44.09375 -16.375 C 45.925781 -18.40625 46.84375 -21.070312 46.84375 -24.375 L 46.84375 -59.90625 L 66.09375 -59.90625 Z M 66.09375 -24.125 "/></g></g></g><g fill="#004aad" fill-opacity="1"><g transform="translate(297.637674, 536.398219)"><g><path d="M 63.3125 -41.53125 C 63.3125 -37.875 62.320312 -34.566406 60.34375 -31.609375 C 58.375 -28.648438 55.5 -26.472656 51.71875 -25.078125 L 65.046875 0 L 43.453125 0 L 32.828125 -21.859375 L 25.6875 -21.859375 L 25.6875 0 L 6.4375 0 L 6.4375 -59.90625 L 43.109375 -59.90625 C 47.398438 -59.90625 51.066406 -59.078125 54.109375 -57.421875 C 57.160156 -55.773438 59.457031 -53.539062 61 -50.71875 C 62.539062 -47.90625 63.3125 -44.84375 63.3125 -41.53125 Z M 43.71875 -40.75 C 43.71875 -42.320312 43.191406 -43.628906 42.140625 -44.671875 C 41.097656 -45.710938 39.820312 -46.234375 38.3125 -46.234375 L 25.6875 -46.234375 L 25.6875 -35.171875 L 38.3125 -35.171875 C 39.820312 -35.171875 41.097656 -35.707031 42.140625 -36.78125 C 43.191406 -37.863281 43.71875 -39.1875 43.71875 -40.75 Z M 43.71875 -40.75 "/></g></g></g><g fill="#004aad" fill-opacity="1"><g transform="translate(365.365667, 536.398219)"><g><path d="M 6.4375 -59.90625 L 58.25 -59.90625 L 58.25 -45.546875 L 25.6875 -45.546875 L 25.6875 -37.265625 L 53.546875 -37.265625 L 53.546875 -23.515625 L 25.6875 -23.515625 L 25.6875 -14.375 L 58.859375 -14.375 L 58.859375 0 L 6.4375 0 Z M 6.4375 -59.90625 "/></g></g></g></svg>